<?xml version="1.0" standalone="no"?>
<!DOCTYPE svg PUBLIC "-//W3C//DTD SVG 20010904//EN"
 "http://www.w3.org/TR/2001/REC-SVG-20010904/DTD/svg10.dtd">
<svg version="1.0" xmlns="http://www.w3.org/2000/svg"
 width="1221.000000pt" height="1221.000000pt" viewBox="0 0 1221.000000 1221.000000"
 preserveAspectRatio="xMidYMid meet">
<metadata>
Created by potrace 1.11, written by Peter Selinger 2001-2013
</metadata>
<g transform="translate(0.000000,1221.000000) scale(0.100000,-0.100000)"
fill="#000000" stroke="none">
<path d="M8695 12004 c-121 -46 -317 -121 -435 -165 -118 -45 -228 -87 -245
-94 -16 -7 -140 -54 -275 -105 -135 -50 -254 -95 -265 -100 -11 -5 -227 -89
-480 -185 -253 -97 -487 -187 -520 -200 -33 -13 -208 -80 -390 -149 -181 -70
-339 -130 -350 -135 -21 -9 -102 -40 -230 -89 -44 -17 -120 -46 -170 -65 -49
-19 -169 -65 -265 -102 -96 -36 -184 -70 -195 -75 -11 -5 -87 -35 -170 -66
-395 -150 -642 -245 -660 -253 -23 -10 -167 -66 -360 -139 -71 -28 -389 -150
-705 -272 -316 -122 -663 -255 -770 -296 -107 -41 -204 -79 -215 -84 -11 -4
-108 -42 -215 -83 -107 -41 -285 -110 -394 -152 -110 -42 -439 -169 -730 -282
-292 -113 -558 -214 -591 -226 -33 -12 -61 -22 -63 -23 -6 -4 20 -90 65 -214
68 -190 263 -712 273 -735 5 -11 95 -245 200 -520 105 -275 195 -509 200 -520
5 -11 38 -96 73 -190 184 -486 259 -682 267 -700 10 -22 91 -234 295 -770 75
-198 140 -369 146 -380 5 -11 65 -166 133 -345 120 -315 309 -804 382 -993 52
-134 62 -161 289 -752 113 -297 210 -549 215 -560 9 -19 245 -630 280 -725 9
-25 21 -54 25 -65 50 -123 405 -1056 405 -1064 0 -6 1 -11 3 -11 2 0 93 34
203 76 109 42 226 87 259 99 92 34 739 282 835 320 208 81 769 295 774 295 4
0 25 9 49 19 23 11 233 92 467 181 234 89 463 177 510 195 309 119 561 216
595 228 31 11 434 165 530 202 11 5 22 9 25 10 3 1 19 7 35 14 17 7 46 18 65
25 19 7 85 32 145 56 61 23 130 50 155 60 143 54 918 352 935 359 42 18 152
61 190 74 22 8 141 53 265 101 124 48 313 121 420 163 107 41 204 78 215 83
11 5 49 20 85 33 167 64 471 181 525 202 164 64 910 351 980 377 43 16 93 35
110 43 28 13 127 50 435 167 74 28 139 54 143 58 4 4 1 22 -7 41 -8 19 -65
169 -126 334 -62 165 -118 314 -125 330 -7 17 -26 66 -43 110 -17 44 -63 166
-103 270 -39 105 -82 217 -94 250 -12 33 -34 89 -48 125 -14 36 -71 184 -127
330 -137 357 -148 386 -175 455 -13 33 -42 110 -65 170 -22 61 -45 119 -50
130 -5 11 -32 81 -60 155 -28 74 -73 191 -100 260 -88 227 -127 330 -354 920
-226 589 -495 1290 -542 1410 -14 36 -45 115 -69 175 -24 61 -112 288 -196
505 -161 419 -192 499 -313 815 -43 110 -88 227 -101 260 -49 123 -398 1021
-409 1050 -43 117 -172 434 -176 434 -3 0 -104 -38 -225 -85z m-3822 -5313
c16 -1 17 -79 17 -1481 l0 -1479 -257 2 -258 2 0 85 c0 50 -4 85 -10 84 -5 0
-59 -24 -120 -53 -154 -74 -197 -89 -305 -107 -98 -16 -355 -22 -462 -10 -121
13 -315 89 -433 169 -171 116 -337 304 -410 462 -37 81 -64 150 -69 177 -2 13
-9 43 -15 68 -25 109 -33 337 -18 460 21 163 94 348 187 476 68 93 237 254
330 315 115 75 265 138 395 164 68 14 410 13 490 -1 133 -24 279 -80 402 -155
17 -11 33 -16 35 -12 3 4 4 193 3 418 -1 226 0 412 1 415 2 4 436 5 497 1z
m712 -1476 l0 -1480 -255 0 -255 0 -1 1470 c0 809 3 1475 7 1480 5 6 102 10
256 10 l248 0 0 -1480z m3249 1465 c3 -8 4 -194 4 -413 0 -219 1 -400 4 -402
2 -2 48 19 103 46 112 58 255 108 329 117 66 8 371 7 459 -2 202 -20 472 -169
637 -350 70 -77 82 -92 128 -161 126 -188 180 -384 177 -645 -3 -186 -24 -304
-78 -440 -97 -239 -311 -466 -557 -590 -58 -29 -148 -66 -187 -75 -118 -30
-163 -35 -323 -36 -290 -2 -390 21 -629 143 -30 15 -57 26 -59 23 -3 -2 -5
-40 -5 -84 l0 -81 -254 0 c-192 0 -253 3 -254 13 -5 51 -3 2943 3 2947 3 3
117 5 252 5 210 0 247 -2 250 -15z m-697 -1775 l0 -1174 -254 -1 c-139 0 -253
3 -254 8 0 4 -2 40 -4 80 -1 40 -4 75 -7 77 -3 3 -57 -19 -120 -49 -212 -100
-301 -119 -564 -118 -185 1 -254 10 -361 46 -147 51 -249 109 -378 218 -215
180 -335 382 -391 658 -8 44 -21 249 -18 303 13 237 73 418 193 587 104 147
293 310 449 389 65 33 211 85 272 97 52 10 426 11 495 1 78 -12 202 -56 328
-118 56 -27 102 -49 103 -49 0 0 0 44 -1 98 -1 53 1 103 3 110 3 9 64 12 257
12 l253 0 -1 -1175z"/>
<path d="M3515 5561 c-169 -40 -329 -174 -400 -335 -79 -178 -90 -338 -40
-581 9 -45 65 -172 81 -186 8 -6 14 -17 14 -23 0 -20 116 -129 173 -164 103
-62 187 -85 327 -88 158 -4 213 6 325 61 185 89 295 243 336 468 13 77 18 228
8 282 -4 22 -10 56 -13 75 -28 177 -170 370 -329 446 -41 19 -102 42 -134 49
-80 19 -260 16 -348 -4z"/>
<path d="M9325 5561 c-78 -19 -114 -36 -195 -91 -176 -121 -280 -350 -274
-605 2 -66 13 -136 39 -245 8 -36 46 -121 72 -163 89 -140 235 -238 395 -265
68 -11 278 -8 331 6 130 34 256 119 333 225 87 120 126 257 127 447 2 238 -62
412 -203 548 -66 64 -186 130 -270 148 -74 16 -282 13 -355 -5z"/>
<path d="M6773 5560 c-173 -45 -305 -154 -391 -326 -95 -190 -101 -457 -15
-678 31 -78 109 -187 173 -239 58 -48 172 -104 252 -123 54 -14 279 -12 339 2
226 53 398 233 454 474 26 113 27 279 3 392 -53 248 -188 409 -409 488 -88 32
-299 37 -406 10z"/>
</g>
</svg>
